<svg xmlns="http://www.w3.org/2000/svg" viewBox="0 0 512 512"><defs><style>.a{fill:#12a095;}.b{fill:#fff;}</style></defs><rect class="a" x="0.15" y="-0.17" width="512.17" height="512.17"/><path class="b" d="M332.46,95.71c-3.37,7-9.82,19.64-10.44,20.88-19,38.15-33.32,142.2-33.32,142.2q-9,59.44-12.54,113.66c-.21,3.25,2.43,25.12-4.3,51.85-4.32,17.12-7.16,28.4-14.42,30.91-18.63,6.43-59.53-47.15-83.16-97C129.67,264,120.2,237.39,120.2,237.39q-8.24-19.5-12.15-19.5t-8.23,20.93q-7,40.43-7,127,0,33.29,1.56,55.64A41.27,41.27,0,0,1,90,443.32q-4.71,10-12.53,10-15.3,0-22.34-39.48-9.4-49.45-9.41-117,0-106,15.68-160.27Q70,108,76.31,96.14q8.63-14.74,20-14.74Q121,81.4,132,109.46q7.85,26.62,14.9,53.26,29.39,93.23,33.69,106.53,21.17,59.92,45.08,100.83,12.13,20.44,17.23,20.45,5.88,0,6.67-28.06C250,346,251,335.8,252.31,327.54c2.22-13.81,4.48-23.37,6-29.13C270.52,251,278.66,137.6,279.16,130.54c0,0,1-14.67,9.48-37.23,3.62-9.64,6.92-14.61,12-18.61.83-.65,10.67-8.13,23.4-6.6,3.42.41,8,1,11.41,4.8,2.22,2.48,4.24,6.69,3.28,10.56-.32,1.31-.7,1.47-2.68,5.05C334.56,91.21,333.89,92.73,332.46,95.71Z"/><path class="b" d="M487.68,177.8q0,42.42-44.06,82-39.45,35.82-95.38,54.2-23.37,7.55-30.26,7.54-13.78,0-13.79-8t8.81-7.07q14.94,1.41,46.73-21.21a250,250,0,0,0,54-51.37q26.81-33.94,26.81-59.86,0-39.59-46-39.59-15.7,0-41,7.07Q326,150,313,160.37q-9.19,19.32-19.54,113.11-10,83.41-11.1,129.13A36.25,36.25,0,0,0,285,415.33q2.67,6.62,2.3,9.43c-1.9,14.24-19.93,26.13-23,27.81-3.54,1.95-5.35,2.91-6.91,2.64-2.94-.52-10.31-4.37-14.54-56.84C240.18,364.67,241,347,241,347c2.88-61.87,13-137.36,15.85-158.27-6.76,5.09-24,16.61-44.58,14.52-5.6-.56-15.41-1.6-20.89-9.09q-3.63-5-3.63-12.59,0-21.21,20.68-38.17Q245.2,112.29,301.51,93q48.27-16.48,82.74-16.5,42.13,0,69.72,22.63Q487.67,126.43,487.68,177.8Z"/></svg>