<svg xmlns="http://www.w3.org/2000/svg" width="1240" height="1240"><path fill-opacity=".016" d="M0 620.001v620.001l620.25-.251 620.25-.251.251-619.75.251-619.75H0v620.001m.497.499c0 341 .114 480.649.253 310.332s.139-449.317 0-620S.497 279.5.497 620.5" fill="#12a195" fill-rule="evenodd"/><path fill-opacity=".075" d="M0 620.001v620.001l620.25-.251 620.25-.251.251-619.75.251-619.75H0v620.001m.497.499c0 341 .114 480.649.253 310.332s.139-449.317 0-620S.497 279.5.497 620.5m765.164-449.311c-15.228 1.83-32.31 9.69-43.031 19.8-11.087 10.457-17.276 20.95-25.561 43.338l-3.636 9.827-13.967 5.74c-54.028 22.203-100.095 47.171-141.477 76.68-51.596 36.792-74.217 63.21-82.023 95.791-7.841 32.724.494 57.232 23.086 67.88 17.826 8.402 45.635 10.894 69.764 6.253 18.846-3.626 43.472-14.171 61.684-26.414 4.95-3.327 9.262-6.058 9.582-6.067.32-.009-.224 5.946-1.209 13.233-17.776 131.485-30.353 256.709-35.981 358.25-1.248 22.507-.763 59.679 1.244 95.415.652 11.603.911 21.371.577 21.705-.334.335-2.196-.374-4.137-1.573-30.303-18.728-110.649-183.511-151.42-310.547-29.669-92.445-78.158-248.351-84.129-270.5-11.469-42.544-26.927-95.879-30.142-104-5.841-14.753-14.219-27.674-25.181-38.834-13.266-13.505-28.707-20.91-48.513-23.264-17.733-2.108-29.77 1.726-41.86 13.335-13.857 13.307-22.661 30.255-37.415 72.028-18.654 52.813-29.039 96.371-37.847 158.735-15.667 110.927-20.189 292.353-10.518 422 5.476 73.412 17.367 150.267 28.536 184.444 6.189 18.939 12.928 31.601 21.356 40.127 8.544 8.643 14.095 10.981 24.154 10.173 14.415-1.157 25.279-13.336 33.328-37.362 4.645-13.864 5.602-24.742 4.23-48.111-2.65-45.151-3.407-90.547-2.754-165.271.362-41.525.834-77.075 1.047-79 .214-1.925.666-12.725 1.005-24 1.578-52.559 6.694-114.897 12.611-153.686 3.969-26.013 11.59-52.239 17.392-59.845 3.556-4.662 6.162-4.48 11.188.781 7.589 7.942 16.035 24.384 27.822 54.159 23.658 59.761 101.302 231.261 136.608 301.738 26.806 53.511 64.121 111.321 98.984 153.353 12.392 14.94 39.08 41.039 49.442 48.35 17.048 12.03 27.162 15.807 39.426 14.727 13.816-1.218 31.109-11.686 49.685-30.077 16.906-16.737 25.165-30.798 26.155-44.529.424-5.881-.034-8.016-4.612-21.5-6.901-20.325-7.493-24.393-6.697-45.971 2.686-72.804 10.181-157.388 26.582-300 11.401-99.137 18.126-147.981 27.053-196.5 6.221-33.811 15.233-68.072 19.941-75.814 3.877-6.375 31.802-22.423 56.916-32.709 33.262-13.623 75.178-24.837 112.551-30.11 16.086-2.27 45.101-2.233 59.967.076 32.212 5.004 55.719 18.824 68.295 40.153 10.059 17.061 14.746 42.537 12.238 66.519-4.648 44.446-29.767 92.192-79.855 151.787-37.701 44.856-81.31 83.366-133.145 117.577-44.822 29.582-68.665 39.592-95.086 39.92-13.965.173-16.358 1.001-19.958 6.905-2.397 3.931-2.643 13.467-.457 17.694 3.727 7.207 13.836 11.002 29.304 11.002 11.531 0 23.498-2.362 48.089-9.49 84.386-24.461 155.908-59.402 218.823-106.903 87.721-66.229 136.213-135.872 145.234-208.581 2.647-21.334.578-60.414-4.534-85.656-14.161-69.927-54.891-123.965-116.915-155.114-37.884-19.026-77.03-27.479-127.5-27.531-32.376-.033-59.858 2.971-97.5 10.658-6.599 1.348-12.188 2.262-12.419 2.032-.231-.231-.59-2.106-.798-4.168-.533-5.276-4.402-13.266-8.757-18.086-8.072-8.935-25.782-13.266-44.865-10.972" fill="#12a195" fill-rule="evenodd"/><path fill-opacity=".22" d="M0 620.001v620.001l620.25-.251 620.25-.251.251-619.75.251-619.75H0v620.001m.497.499c0 341 .114 480.649.253 310.332s.139-449.317 0-620S.497 279.5.497 620.5m762.26-449.466c-12.459 2.097-27.503 8.862-37.349 16.794-11.621 9.362-19.961 22.647-28.356 45.172-2.153 5.775-4.507 10.837-5.233 11.25-.725.412-8.519 3.715-17.319 7.339-66.843 27.526-124.834 62.106-173.846 103.664-23.069 19.56-37.376 40.037-44.191 63.247-3.153 10.737-4.466 31.419-2.57 40.5 3.39 16.245 14.806 28.618 31.885 34.557 15.371 5.346 41.657 7.017 60.296 3.833 20.006-3.418 44.805-13.747 64.176-26.732 5.362-3.594 9.75-6.225 9.749-5.846 0 .378-1.587 12.613-3.527 27.188-13.966 104.966-24.676 207.15-31.548 301-3.528 48.182-3.646 116.076-.267 153.347l.621 6.848-3.3-1.706c-21.551-11.145-77.217-113.93-119.681-220.989-17.362-43.771-27.302-73.193-64.871-192-21.739-68.75-40.394-127.7-41.455-131-1.061-3.3-6.446-22.568-11.967-42.818-16.797-61.612-26.719-95.028-30.907-104.094-8.591-18.595-22.72-36.009-36.597-45.108-12.785-8.383-30.893-13.088-47.339-12.302-7.868.376-9.893.884-16.322 4.093-9.417 4.701-15.709 10.194-23.108 20.173-10.662 14.379-18.771 33.247-33.765 78.556-13.883 41.952-21.275 72.193-28.476 116.5-13.887 85.446-20.499 196.927-19.158 323 .701 65.972 2.061 95.81 6.767 148.5 5.831 65.299 16.65 130.084 27.052 162 6.415 19.681 16.329 36.702 25.085 43.066 6.425 4.671 10.601 6.133 17.764 6.222 12.843.158 22.299-7.16 30.337-23.476 9.955-20.21 11.985-35.021 9.773-71.312-4.259-69.883-3.344-215.058 1.926-305.5 1.517-26.053 4.636-62.592 6.997-82 5.616-46.145 13.876-78.749 21.9-86.436 2.67-2.558 3.089-2.662 5.686-1.413 6.747 3.247 17.442 22.555 30.38 54.849 23.892 59.638 59.132 138.357 117.961 263.5 27.284 58.038 49.036 97.117 76.816 138 40.413 59.476 79.143 100.623 107.988 114.728 8.694 4.252 8.789 4.272 19.736 4.24 12.762-.037 16.867-1.492 30.924-10.952 24.99-16.818 43.323-39.03 48.148-58.337 1.928-7.714 1.44-11.168-3.575-25.273-5.829-16.397-6.997-22.927-6.996-39.103.001-41.978 8.805-151.868 20.453-255.303 16.989-150.861 24.093-203.39 35.163-260 5.566-28.461 12.484-54.151 17.457-64.826.817-1.755 4.936-5.21 10.871-9.12 35.965-23.695 93.814-43.671 154.055-53.197 16.123-2.55 54.439-2.566 67.852-.029 36.1 6.829 59.213 23.646 70.074 50.987 4.421 11.128 6.152 20.658 6.755 37.185.457 12.513.194 17.073-1.586 27.5-7.183 42.077-32.757 87.899-80.926 145-13.877 16.45-50.29 52.804-66.765 66.655-48.474 40.758-99.282 72.867-131.904 83.36-8.705 2.8-11.942 3.302-25 3.881-12.229.541-15.518 1.009-17.801 2.533-3.703 2.47-5.758 6.653-6.354 12.934-1.273 13.411 10.974 21.598 32.354 21.629 14.695.022 60.564-12.635 103.301-28.504 70.604-26.216 137.47-65.025 190.5-110.564 17.743-15.237 44.205-41.659 56.336-56.252 47.513-57.154 66.351-109.394 62.355-172.92-1.925-30.617-5.776-51.535-13.798-74.955-10.785-31.488-25.552-55.664-48.351-79.161-38.051-39.215-84.107-61.472-145.542-70.336-17.241-2.487-67.209-2.482-87.5.009-16.857 2.069-40.647 5.961-53.453 8.745-4.924 1.07-9.476 1.946-10.114 1.946-.639 0-1.438-2.022-1.777-4.494-1.439-10.498-10.363-21.756-20.148-25.417-10.125-3.788-25.035-5.028-36.751-3.055" fill="#12a195" fill-rule="evenodd"/><path fill-opacity=".287" d="M0 620.001v620.001l620.25-.251 620.25-.251.251-619.75.251-619.75H0v620.001m.497.499c0 341 .114 480.649.253 310.332s.139-449.317 0-620S.497 279.5.497 620.5M756 172.067c-12.233 3.191-25.29 10.265-33.708 18.26-11.359 10.791-17.762 21.531-25.797 43.268l-3.731 10.096-13.132 5.295c-65.839 26.548-123.013 59.882-172.897 100.804C474.312 376.388 458 401.253 453.461 431c-1.828 11.981-1.815 18.665.053 27.483 5.224 24.665 23.083 37.053 58.486 40.569 31.489 3.128 65.863-6.559 97.429-27.454 5.461-3.615 10.016-6.466 10.122-6.335.105.13-.411 4.512-1.148 9.737-2.147 15.234-12.089 94.495-14.864 118.5-10.491 90.748-18.393 180.404-21.66 245.748-1.192 23.841-.384 66.036 1.962 102.502.363 5.638.525 10.25.36 10.25-1.83 0-7.058-4.131-11.665-9.217-25.068-27.673-70.82-115.378-106.406-203.977-19.517-48.593-26.15-67.367-47.624-134.806-44.169-138.718-65.021-205.983-73.001-235.5-13.028-48.185-26.292-94.085-29.622-102.5-1.632-4.125-5.04-11.1-7.573-15.5-17.023-29.572-39.896-45.061-70.882-47.997-14.399-1.365-26.767 3.135-38.162 13.885-7.327 6.911-15.12 17.368-19.667 26.388-10.387 20.607-29.514 75.833-38.598 111.447-22.139 86.801-32.964 206.978-32.991 366.277-.017 104.032 4.859 178.913 16.573 254.5 9.216 59.462 17.67 90.199 30.318 110.226 10.614 16.806 25.108 23.918 39.211 19.239 12.03-3.991 23.679-21.012 29.621-43.282 2.268-8.501 2.583-11.636 2.579-25.683-.002-8.8-.553-24.55-1.224-35-.671-10.45-1.472-50.275-1.78-88.5-1.483-183.98 8.585-320.711 26.854-364.716 5.806-13.982 8.901-15.344 16.266-7.153 5.288 5.882 16.98 28.78 23.93 46.869 18.715 48.703 90.901 208.999 133.073 295.5 36.996 75.883 85.511 147.757 128.961 191.054 36.706 36.576 58.3 45.149 82.452 32.733 17.318-8.902 41.04-30.307 50.616-45.67 10.311-16.544 11.581-26.37 5.572-43.117-7.43-20.708-7.493-21.083-7.338-43.5.363-52.522 8.957-154.594 24.332-289 18.507-161.783 30.097-234.534 44.049-276.49 4.083-12.277 4.391-12.832 9.264-16.683 16.121-12.744 53.897-30.179 88.167-40.692 15.496-4.755 45.705-11.892 62.046-14.661 49.179-8.331 88.865-4.033 117.233 12.695 7.461 4.4 18.855 15.796 23.566 23.57 10.88 17.955 15.635 45.357 12.278 70.761-6.569 49.718-39.791 106.662-100.432 172.141-49.836 53.813-131.187 112.73-176.571 127.877-12.562 4.193-20.554 5.491-32.126 5.218-9.991-.235-13.876 1.195-17.895 6.587-3.027 4.06-3.034 16.276-.013 20.354 5.08 6.855 11.495 9.283 26.526 10.037 12.305.617 21.095-.936 47.382-8.371 91.601-25.909 173.793-67.515 239.5-121.236 51.508-42.112 85.963-82.685 107.515-126.607 15.915-32.434 21.342-54.122 22.213-88.772 1.86-74.055-19.653-134.417-63.707-178.751-60.624-61.009-146.625-83.174-255.521-65.857-11.793 1.876-32.345 5.799-38.603 7.37-2.288.574-2.5.327-2.734-3.184-.359-5.401-4.281-13.394-9.181-18.709-4.868-5.281-12.007-8.954-20.416-10.504-9.44-1.739-25.949-1.274-34.566.974" fill="#12a195" fill-rule="evenodd"/></svg>